<svg xmlns="http://www.w3.org/2000/svg" viewBox="0 16.5 284.7271423339844 85.79000091552734" data-asc="1.2958984375" width="284.7271423339844" height="85.79000091552734"><defs/><g transform="translate(0, 0)"><path d="M61.91 53.08Q61.77 54.54 60.91 55.59Q60.06 56.64 58.89 57.40Q57.71 58.15 56.35 58.69Q54.98 59.23 53.81 59.72Q53.81 60.45 53.49 60.64Q53.17 60.84 52.73 60.86Q52.29 60.89 51.78 60.89Q51.27 60.89 50.88 61.18L50.39 60.79Q50.24 60.99 50.07 61.11Q49.90 61.23 49.76 61.43Q49.56 61.67 49.39 61.89Q49.22 62.11 48.88 62.11Q48.24 61.87 47.61 62.01Q46.97 62.16 46.31 62.45Q45.65 62.74 44.97 63.01Q44.29 63.28 43.60 63.28L43.55 63.33Q43.02 63.72 42.77 64.04Q42.53 64.36 42.19 64.89Q41.80 65.43 41.43 65.84Q41.06 66.26 40.28 66.16Q40.14 66.02 39.89 65.87Q39.65 65.72 39.45 65.63Q38.92 65.38 38.89 65.26Q38.87 65.14 38.53 64.89Q38.13 65.14 37.21 65.41Q36.28 65.67 35.23 65.89Q34.18 66.11 33.18 66.31Q32.18 66.50 31.69 66.55Q31.45 66.31 31.25 66.14Q31.05 65.97 30.81 65.72L30.76 65.72Q29.54 65.97 28.39 66.04Q27.25 66.11 26.12 66.11Q25 66.11 23.88 66.11Q22.75 66.11 21.58 66.16Q20.85 64.94 20.12 64.92Q19.38 64.89 18.65 65.28Q17.92 65.67 17.21 66.11Q16.50 66.55 15.77 66.16L15.72 66.21Q14.50 66.75 13.53 67.46Q12.55 68.16 11.60 68.87Q10.64 69.58 9.59 70.19Q8.54 70.80 7.18 71.04Q6.40 70.46 5.71 70.70Q5.03 70.95 4.37 71.34Q3.71 71.73 3.13 71.92Q2.54 72.12 2.00 71.48L1.95 71.48L1.95 71.44Q1.66 71.24 1.42 71.29Q1.17 71.34 0.95 71.46Q0.73 71.58 0.59 71.73Q0.44 71.88 0.29 71.83Q0.10 71.83 0 71.58Q0.24 71.04 0.83 70.75Q1.42 70.46 2.10 70.19Q2.78 69.92 3.47 69.56Q4.15 69.19 4.59 68.51Q5.71 67.92 6.86 67.43Q8.01 66.94 8.94 66.11Q9.77 66.26 10.91 65.89Q12.06 65.53 12.89 65.28L13.04 65.19Q13.18 64.84 13.45 64.65Q13.72 64.45 14.04 64.28Q14.36 64.11 14.70 63.84Q15.04 63.57 15.33 63.13L15.38 63.09L15.33 63.04Q15.04 62.11 14.58 61.38Q14.11 60.64 13.65 59.94Q13.18 59.23 12.84 58.45Q12.50 57.67 12.50 56.64Q12.74 56.35 12.99 55.96Q13.23 55.57 13.53 55.20Q13.82 54.83 14.16 54.57Q14.50 54.30 14.94 54.30L15.48 54.79Q15.97 54.25 16.72 54.25Q17.48 54.25 18.33 54.42Q19.19 54.59 20.04 54.76Q20.90 54.93 21.58 54.74Q22.36 55.13 23.00 55.66Q23.63 56.20 24.29 56.59Q24.95 56.98 25.71 57.10Q26.46 57.23 27.44 56.74L27.59 56.69L27.59 56.59Q27.69 55.86 28.20 55.44Q28.71 55.03 29.30 54.69Q29.88 54.35 30.37 53.98Q30.86 53.61 30.96 52.98Q32.28 51.86 33.28 50.93Q34.28 50 35.13 49.05Q35.99 48.10 36.79 47.02Q37.60 45.95 38.57 44.48L38.62 44.43Q38.53 44.09 38.89 43.58Q39.26 43.07 39.60 42.43Q39.94 41.80 40.04 41.06Q40.14 40.33 39.55 39.50Q39.89 38.82 40.01 38.13Q40.14 37.45 40.58 36.82L40.67 36.62Q40.23 36.43 40.21 35.96Q40.19 35.50 40.26 34.91Q40.33 34.33 40.36 33.72Q40.38 33.11 39.99 32.67Q40.97 31.93 41.24 30.96Q41.50 29.98 41.60 28.91Q41.70 27.98 41.87 27.47Q42.04 26.95 42.43 26.07L42.38 26.03Q41.80 24.66 42.29 23.73Q42.77 22.80 43.65 22.00Q44.53 21.19 45.48 20.41Q46.44 19.63 46.78 18.51Q47.61 17.92 48.63 18.12Q49.51 18.31 50.24 18.97Q50.98 19.63 51.51 20.36Q51.61 20.46 51.76 20.65Q51.90 20.85 51.90 20.90Q52.10 21.53 52.05 22.19Q52.00 22.85 51.86 23.49Q51.71 24.12 51.64 24.76Q51.56 25.39 51.76 26.03Q51.17 27.00 50.90 28.08Q50.63 29.15 50.42 30.22Q50.20 31.30 49.85 32.30Q49.51 33.30 48.68 34.08L48.68 34.13Q48.00 35.30 47.34 36.30Q46.68 37.30 46.00 38.31Q45.31 39.31 44.68 40.38Q44.04 41.46 43.46 42.68L43.41 42.72Q43.80 43.46 43.51 44.09Q43.21 44.73 42.87 45.41Q42.53 46.09 42.48 46.85Q42.43 47.61 43.31 48.49Q43.07 48.78 43.07 49.27Q43.07 49.76 43.09 50.22Q43.12 50.68 43.07 51.10Q43.02 51.51 42.68 51.71Q42.82 51.81 42.94 51.95Q43.07 52.10 43.21 52.20Q43.21 52.54 43.19 52.88Q43.16 53.22 43.12 53.61Q43.07 54.15 43.07 54.69Q43.07 55.22 43.02 55.76Q43.02 55.86 42.97 55.98Q42.92 56.10 42.92 56.25Q42.92 56.64 43.09 56.98Q43.26 57.32 43.41 57.64Q43.55 57.96 43.53 58.30Q43.51 58.64 43.16 58.98L43.21 59.08Q43.70 59.81 44.17 59.86Q44.63 59.91 45.09 59.79Q45.56 59.67 46.04 59.59Q46.53 59.52 47.07 60.06Q48.39 59.38 49.76 58.89Q51.12 58.40 52.49 58.01Q54.30 57.52 55.98 56.91Q57.67 56.30 59.13 55.08Q59.72 54.59 60.47 53.91Q61.23 53.22 61.91 53.08M49.32 21.83Q49.07 21.78 48.88 21.90Q48.68 22.02 48.49 22.14Q48.29 22.27 48.12 22.24Q47.95 22.22 47.80 21.92L47.46 22.02Q47.56 23.19 47.22 24.22Q46.88 25.24 46.36 26.20Q45.85 27.15 45.26 28.10Q44.68 29.05 44.29 30.08Q43.90 31.10 43.80 32.25Q43.70 33.40 44.14 34.72L44.19 34.81Q45.02 34.81 45.31 34.40Q45.61 33.98 45.68 33.50Q45.75 33.01 45.85 32.64Q45.95 32.28 46.44 32.32Q46.44 31.64 46.80 31.13Q47.17 30.62 47.51 30.13Q47.85 29.64 48.02 29.10Q48.19 28.56 47.75 27.73Q48.10 27.10 48.12 26.32Q48.14 25.54 48.17 24.76Q48.19 23.97 48.41 23.29Q48.63 22.61 49.37 22.22L49.32 21.83M40.48 60.11Q40.48 59.08 40.06 58.18Q39.65 57.28 39.65 56.25Q39.65 55.96 39.70 55.81Q39.99 54.88 39.99 54.05Q39.99 53.22 39.89 52.42Q39.79 51.61 39.79 50.78Q39.65 50.63 39.92 50.39Q40.19 50.15 40.28 50.05Q40.14 49.95 39.77 49.61Q39.40 49.27 39.26 49.12L38.96 49.27Q38.96 49.61 38.67 49.83Q38.38 50.05 38.04 50.27Q37.70 50.49 37.50 50.78Q37.30 51.07 37.45 51.66Q36.33 52.49 35.40 53.47Q34.47 54.44 33.57 55.44Q32.67 56.45 31.74 57.35Q30.81 58.25 29.74 58.98L31.20 60.45L31.35 60.40Q31.88 60.21 32.30 60.40Q32.71 60.60 33.08 60.82Q33.45 61.04 33.79 61.13Q34.13 61.23 34.52 60.89Q34.81 61.08 34.91 61.23Q35.64 61.28 36.35 61.43Q37.06 61.57 37.77 61.62Q38.48 61.67 39.14 61.50Q39.79 61.33 40.38 60.74L40.43 60.74Q40.43 60.60 40.45 60.42Q40.48 60.25 40.48 60.11M27.44 61.38L27.39 61.38Q27.10 60.74 26.46 60.94Q26.37 60.99 26.07 61.04Q25.78 61.08 25.46 61.16Q25.15 61.23 24.93 61.35Q24.71 61.47 24.76 61.62L23.34 62.40L29.49 62.79L27.44 61.38M23.00 58.98Q22.51 58.84 21.95 58.37Q21.39 57.91 21.04 57.57Q20.46 57.86 19.97 57.74Q19.48 57.62 19.04 57.40Q18.60 57.18 18.19 57.03Q17.77 56.88 17.33 57.18Q17.14 57.08 17.02 56.96Q16.89 56.84 16.80 56.74Q16.21 57.57 16.55 58.18Q16.89 58.79 17.41 59.30Q17.92 59.81 18.29 60.28Q18.65 60.74 18.16 61.33L18.31 61.62L19.73 61.62Q19.82 61.52 20.14 61.25Q20.46 60.99 20.51 60.84Q20.70 60.69 21.00 60.38Q21.29 60.06 21.63 59.74Q21.97 59.42 22.31 59.18Q22.66 58.94 23.00 58.98ZM91.11 62.35Q90.53 62.35 90.21 62.38Q89.89 62.40 89.65 62.45Q89.40 62.50 89.11 62.65Q88.82 62.79 88.33 63.09Q88.13 63.62 87.82 63.89Q87.50 64.16 87.08 64.33Q86.67 64.50 86.23 64.67Q85.79 64.84 85.40 65.23Q81.69 65.82 78.86 63.57Q78.52 63.33 78.25 63.04Q77.98 62.74 77.64 62.50Q77.39 62.30 77.37 62.33Q77.34 62.35 77.15 62.11Q76.81 61.62 76.73 60.91Q76.66 60.21 76.51 59.55Q76.37 58.89 75.95 58.42Q75.54 57.96 74.51 58.01Q74.02 59.03 73.12 60.08Q72.22 61.13 71.09 61.96Q69.97 62.79 68.73 63.33Q67.48 63.87 66.36 63.87Q65.97 64.99 65.01 65.55Q64.06 66.11 62.99 66.41Q62.89 66.46 62.60 66.53Q62.30 66.60 62.26 66.60Q61.57 66.65 61.18 66.36Q60.79 66.06 60.45 65.72Q60.11 65.38 59.72 65.09Q59.33 64.79 58.64 64.79Q58.11 63.53 57.57 62.30Q57.03 61.08 56.79 59.81Q57.23 59.57 57.25 59.20Q57.28 58.84 57.28 58.45Q56.49 58.20 56.47 57.84Q56.45 57.47 56.62 57.08Q56.79 56.69 56.96 56.32Q57.13 55.96 56.79 55.71Q57.18 52.73 58.50 49.95Q59.81 47.17 62.26 45.31Q61.96 44.38 62.43 43.90Q62.89 43.41 63.55 43.36Q64.21 43.31 64.82 43.68Q65.43 44.04 65.43 44.82Q65.48 45.17 65.38 45.51Q65.28 45.85 65.19 46.14Q64.89 47.61 64.31 48.97Q63.72 50.34 63.04 51.66Q62.35 52.98 61.65 54.30Q60.94 55.62 60.45 57.03Q59.86 57.42 60.06 57.86Q60.25 58.30 60.57 58.72Q60.89 59.13 60.91 59.52Q60.94 59.91 60.01 60.25Q59.72 60.94 60.16 61.45Q60.60 61.96 60.89 62.50Q61.28 62.55 61.65 62.50Q62.01 62.45 62.26 62.06Q62.84 62.45 63.31 62.21Q63.77 61.96 64.28 61.60Q64.79 61.23 65.41 60.99Q66.02 60.74 66.80 61.13Q67.14 60.79 67.36 60.30Q67.58 59.81 67.82 59.38Q68.07 58.94 68.43 58.64Q68.80 58.35 69.48 58.45Q70.17 57.23 71.29 56.42Q72.41 55.62 73.56 54.88Q74.71 54.15 75.61 53.32Q76.51 52.49 76.76 51.17Q77.69 49.71 78.64 47.88Q79.59 46.04 80.86 44.82Q81.01 44.43 81.35 44.21Q81.69 43.99 82.08 43.92Q82.47 43.85 82.86 43.97Q83.25 44.09 83.54 44.38Q83.64 45.26 83.33 46.00Q83.01 46.73 82.64 47.44Q82.28 48.14 82.08 48.93Q81.88 49.71 82.23 50.73Q81.54 51.12 80.88 51.42Q80.22 51.71 79.66 52.05Q79.10 52.39 78.69 52.93Q78.27 53.47 78.13 54.35Q79.44 54.83 79.69 55.57Q79.93 56.30 79.93 57.15Q79.93 58.01 80.05 58.91Q80.18 59.81 81.30 60.69Q81.49 60.84 81.57 60.91Q81.64 60.99 81.88 61.08Q82.37 61.23 82.76 61.06Q83.15 60.89 83.52 60.74Q83.89 60.60 84.30 60.62Q84.72 60.64 85.25 61.23Q85.99 60.30 86.62 61.23Q87.21 60.16 87.70 60.01Q88.18 59.86 88.65 59.91Q89.11 59.96 89.60 59.81Q90.09 59.67 90.67 58.59L91.11 59.03Q91.41 58.25 91.82 58.28Q92.24 58.30 92.63 58.42Q93.02 58.54 93.31 58.42Q93.60 58.30 93.60 57.28Q94.04 57.28 94.36 57.08Q94.68 56.88 95.00 56.64Q95.31 56.40 95.70 56.23Q96.09 56.05 96.63 56.05L95.36 59.13L91.11 62.35ZM129.35 49.85Q128.91 50.29 128.69 50.54Q128.47 50.78 128.30 51.00Q128.13 51.22 127.91 51.46Q127.69 51.71 127.25 52.20Q126.86 52.59 126.51 53.03Q126.17 53.47 125.73 53.81Q125.15 53.66 124.83 53.96Q124.51 54.25 124.24 54.61Q123.97 54.98 123.75 55.30Q123.54 55.62 123.19 55.57Q122.02 56.20 120.85 56.67Q119.68 57.13 118.60 58.01L118.21 57.62L113.13 60.06Q112.89 60.16 112.65 60.35Q112.40 60.55 112.16 60.69Q111.08 61.28 109.94 61.74Q108.79 62.21 107.67 62.60L107.03 62.79Q107.42 63.77 107.03 64.16Q106.64 64.55 105.91 64.72Q105.18 64.89 104.30 64.94Q103.42 64.99 102.93 65.28Q102.34 65.19 101.73 65.21Q101.12 65.23 100.49 65.33Q99.80 65.43 99.22 65.43Q98.63 65.43 97.95 65.28L97.85 65.28Q97.02 65.67 96.41 65.45Q95.80 65.23 95.31 64.72Q94.82 64.21 94.41 63.50Q93.99 62.79 93.55 62.21Q93.26 61.82 92.82 61.08Q92.38 60.35 92.07 59.52Q91.75 58.69 91.67 57.84Q91.60 56.98 92.04 56.35Q92.48 55.71 92.75 54.98Q93.02 54.25 93.02 53.27Q93.02 52.93 92.99 52.64Q92.97 52.34 92.97 52.00Q93.21 52.00 93.51 52.03Q93.80 52.05 94.07 52.03Q94.34 52.00 94.51 51.83Q94.68 51.66 94.68 51.22Q94.68 50.98 94.51 50.83Q94.34 50.68 94.29 50.54Q94.58 50.10 94.85 49.83Q95.12 49.56 95.31 49.29Q95.51 49.02 95.61 48.66Q95.70 48.29 95.56 47.66Q96.14 46.63 96.95 45.83Q97.75 45.02 98.63 44.31Q99.51 43.60 100.44 42.92Q101.37 42.24 102.20 41.46Q103.13 41.85 103.69 41.46Q104.25 41.06 104.69 40.60Q105.13 40.14 105.57 39.84Q106.01 39.55 106.74 40.09L106.84 40.19Q108.15 38.87 109.50 39.01Q110.84 39.16 111.79 39.89Q112.74 40.63 113.04 41.58Q113.33 42.53 112.50 42.87Q113.04 43.41 113.04 44.14Q113.04 44.87 112.65 45.41Q112.21 46.00 111.89 46.61Q111.57 47.22 111.23 47.90Q110.74 49.02 110.16 50.02Q109.57 51.03 108.50 51.71Q107.62 51.46 107.30 51.90Q106.98 52.34 106.84 52.86Q106.69 53.37 106.49 53.66Q106.30 53.96 105.66 53.47L105.57 53.37L105.47 53.47Q105.08 53.86 104.86 54.35Q104.64 54.83 104.25 55.08Q103.81 54.93 103.32 54.83Q102.83 54.74 102.39 54.64Q102.39 55.66 102.00 56.25Q101.61 56.84 101.00 57.20Q100.39 57.57 99.61 57.79Q98.83 58.01 98.07 58.33Q97.31 58.64 96.66 59.11Q96.00 59.57 95.61 60.40Q96.09 60.94 96.83 61.01Q97.56 61.08 98.34 61.01Q99.12 60.94 99.88 60.94Q100.63 60.94 101.22 61.33L101.27 61.38L101.32 61.33Q102.49 61.18 103.59 60.77Q104.69 60.35 105.74 59.89Q106.79 59.42 107.89 59.01Q108.98 58.59 110.16 58.40Q110.40 58.79 110.82 58.84Q111.23 58.89 111.62 58.79L111.67 58.69Q111.77 58.35 111.87 58.08Q111.96 57.81 112.16 57.47Q112.50 56.93 112.99 56.64Q113.48 56.35 114.04 56.20Q114.60 56.05 115.23 56.01Q115.87 55.96 116.50 55.86L116.60 55.86L116.65 55.71Q116.85 55.13 117.16 54.91Q117.48 54.69 117.85 54.59Q118.21 54.49 118.63 54.44Q119.04 54.39 119.43 54.15Q120.31 54.44 120.90 53.96Q121.48 53.47 122.02 52.93L122.41 53.42L122.56 53.22Q123.29 52.54 123.66 52.20Q124.02 51.86 124.37 51.59Q124.71 51.32 125.17 51.05Q125.63 50.78 126.46 50.24Q127.15 49.80 127.81 49.37Q128.47 48.93 129.10 48.39Q129.35 48.49 129.35 48.75Q129.35 49.02 129.35 49.27Q129.30 49.37 129.27 49.56Q129.25 49.76 129.35 49.85M109.13 43.75Q109.08 43.70 109.06 43.70Q109.03 43.70 108.98 43.65Q107.96 43.12 107.28 43.14Q106.59 43.16 106.03 43.53Q105.47 43.90 105.00 44.46Q104.54 45.02 104.03 45.48Q103.52 45.95 102.83 46.19Q102.15 46.44 101.17 46.14Q101.03 46.92 100.90 47.68Q100.78 48.44 100.73 49.22Q99.90 49.51 99.44 50.05Q98.97 50.59 98.66 51.22Q98.34 51.86 98.07 52.56Q97.80 53.27 97.36 53.91L97.56 54.15Q97.75 54.05 98.00 54.30Q98.24 54.54 98.34 54.64Q98.88 53.86 99.78 53.32Q100.68 52.78 101.64 52.32Q102.59 51.86 103.47 51.32Q104.35 50.78 104.79 49.90Q106.35 49.46 107.13 48.14Q107.91 46.83 108.45 45.41Q108.54 45.12 108.81 44.56Q109.08 43.99 109.13 43.75ZM170.65 60.35Q170.46 60.74 170.07 60.94Q169.68 61.13 169.34 61.33Q169.09 61.47 168.58 61.50Q168.07 61.52 167.72 61.62Q167.33 61.77 167.04 62.08Q166.75 62.40 166.36 62.60Q165.92 62.84 165.45 63.06Q164.99 63.28 164.75 63.72Q164.75 63.96 164.84 64.06Q164.94 64.16 165.09 64.26L165.14 64.36Q164.75 64.31 164.26 64.18Q163.77 64.06 163.43 64.16Q163.04 64.26 162.72 64.40Q162.40 64.55 162.01 64.70Q161.67 64.79 161.33 64.89Q160.99 64.99 160.64 65.09Q160.25 65.19 159.96 65.45Q159.67 65.72 159.28 65.87Q159.08 65.97 158.91 65.94Q158.74 65.92 158.54 65.97Q158.01 65.97 157.42 66.11Q156.84 66.26 156.35 66.46Q155.91 66.60 155.57 67.07Q155.22 67.53 154.98 67.53Q154.59 67.63 154.20 67.50Q153.81 67.38 153.42 67.43Q153.03 67.48 152.69 67.21Q152.34 66.94 151.90 66.99Q151.42 67.04 151.07 67.31Q150.73 67.58 150.39 67.58Q150.05 67.58 149.66 67.46Q149.27 67.33 148.88 67.24Q148.49 67.14 148.10 67.26Q147.71 67.38 147.27 67.29Q146.92 67.19 146.70 66.72Q146.48 66.26 146.09 66.16Q145.41 65.92 144.73 65.65Q144.04 65.38 143.46 65.09L143.51 64.94Q143.41 64.70 143.26 64.79Q143.12 64.89 143.02 64.99L142.97 64.99Q142.33 64.36 142.16 64.06Q141.99 63.77 142.04 63.57Q142.09 63.38 142.24 63.11Q142.38 62.84 142.33 62.21Q142.33 61.96 141.92 61.57Q141.50 61.18 141.36 60.94Q141.11 60.55 140.97 60.38Q140.82 60.21 140.48 59.86L140.38 59.77L139.70 57.13Q139.60 57.23 139.48 57.52Q139.36 57.81 139.26 58.18Q139.16 58.54 139.04 58.84Q138.92 59.13 138.87 59.18Q138.62 59.42 138.82 60.03Q139.01 60.64 138.82 60.94Q138.28 61.77 138.04 62.08Q137.79 62.40 137.74 62.62Q137.70 62.84 137.74 63.23Q137.79 63.62 137.79 64.60Q137.70 64.60 137.65 64.65Q137.35 64.89 137.06 64.87Q136.77 64.84 136.43 64.79Q136.08 64.75 135.67 64.75Q135.25 64.75 134.67 65.04Q134.47 65.04 134.38 65.33Q134.38 65.04 133.89 64.62Q133.40 64.21 133.35 63.82Q133.30 63.43 133.76 63.01Q134.23 62.60 134.38 62.21Q134.52 61.77 134.45 61.21Q134.38 60.64 134.62 60.30Q134.72 60.16 134.84 60.11Q134.96 60.06 135.11 59.96Q135.69 59.57 135.74 59.23Q135.79 58.89 135.89 58.30Q135.94 58.06 135.94 57.98Q135.94 57.91 135.69 57.81Q135.94 57.47 136.25 57.30Q136.57 57.13 136.72 56.74Q136.87 56.35 136.82 55.98Q136.77 55.62 136.87 55.22Q136.96 54.88 137.28 54.61Q137.60 54.35 137.74 53.96Q137.79 53.81 137.87 53.54Q137.94 53.27 138.01 52.93Q138.09 52.59 138.13 52.32Q138.18 52.05 138.18 51.90Q138.18 51.66 138.16 51.32Q138.13 50.98 138.23 50.78Q138.38 50.39 138.57 50.05Q138.77 49.71 138.92 49.32Q139.06 48.93 139.09 48.51Q139.11 48.10 139.26 47.71Q139.36 47.36 139.87 47.12Q140.38 46.88 140.58 46.44Q140.67 46.24 140.70 46.04Q140.72 45.85 140.77 45.65Q140.87 45.26 141.06 44.46Q141.26 43.65 141.50 43.26Q141.65 42.92 142.07 42.63Q142.48 42.33 142.72 41.94Q142.72 41.50 142.58 41.16Q142.43 40.82 142.43 40.38Q142.53 40.09 142.72 39.79Q142.92 39.50 143.07 39.21Q143.21 38.92 143.33 38.57Q143.46 38.23 143.60 37.94Q143.90 37.45 144.38 37.16Q144.87 36.87 145.12 36.33Q145.12 36.08 145.04 36.08Q144.97 36.08 144.87 35.99Q144.63 35.99 144.53 35.79Q144.78 35.45 145.17 35.30Q145.56 35.16 145.75 34.77Q146.00 34.28 145.92 33.84Q145.85 33.40 146.09 33.01Q146.34 32.62 146.58 32.28Q146.83 31.93 147.07 31.54Q147.27 31.25 147.63 31.10Q148.00 30.96 148.24 30.52Q148.44 30.08 148.36 29.66Q148.29 29.25 148.49 28.96Q148.73 28.56 149.10 28.42Q149.46 28.27 149.71 27.88Q149.90 27.54 149.85 27.08Q149.80 26.61 149.95 26.37Q150.15 25.98 150.27 25.61Q150.39 25.24 150.63 24.95Q150.73 24.80 150.88 24.66Q151.03 24.51 151.17 24.37Q151.95 23.49 152.64 22.61Q152.88 22.31 153.10 21.95Q153.32 21.58 153.56 21.34Q153.86 21.09 154.15 20.85Q154.44 20.61 154.74 20.36Q155.03 20.12 155.44 19.97Q155.86 19.82 156.15 19.58Q156.30 19.43 156.27 19.31Q156.25 19.19 156.35 19.09Q156.45 19.29 156.52 19.46Q156.59 19.63 156.69 19.82L156.88 19.63Q157.13 19.38 157.28 19.34Q157.42 19.29 157.71 19.14Q157.86 19.09 158.11 18.95Q158.35 18.80 158.62 18.65Q158.89 18.51 159.11 18.38Q159.33 18.26 159.42 18.26Q159.77 18.26 160.13 18.53Q160.50 18.80 160.84 18.90Q161.38 19.09 161.79 18.97Q162.21 18.85 162.74 19.19Q163.04 19.38 163.38 19.60Q163.72 19.82 163.96 20.12Q164.26 20.36 164.58 20.95Q164.89 21.53 165.09 21.63Q165.19 22.41 165.31 23.17Q165.43 23.93 165.58 24.71Q165.67 25.10 165.65 25.46Q165.63 25.83 165.67 26.22Q165.72 26.61 165.58 27.00Q165.43 27.39 165.48 27.78Q165.53 28.22 165.87 28.59Q166.21 28.96 166.21 29.35Q166.21 29.74 166.04 30.10Q165.87 30.47 165.87 30.91Q165.87 31.30 165.84 31.69Q165.82 32.08 165.77 32.47Q165.72 32.86 165.77 33.25Q165.82 33.64 165.82 34.03Q165.82 34.96 165.50 35.64Q165.19 36.33 164.99 37.11Q164.89 37.50 164.94 37.89Q164.99 38.28 164.99 38.67Q164.99 38.82 164.75 39.43Q164.50 40.04 164.45 40.19Q164.26 40.58 163.99 40.87Q163.72 41.16 163.57 41.55Q163.48 41.85 163.55 42.24Q163.62 42.63 163.62 42.97Q163.62 43.07 163.60 43.14Q163.57 43.21 163.57 43.31Q163.33 43.65 162.99 43.90Q162.65 44.14 162.45 44.48Q162.26 44.82 161.87 45.04Q161.47 45.26 161.23 45.56Q160.99 45.85 160.84 46.22Q160.69 46.58 160.45 46.88Q160.16 47.27 160.08 47.75Q160.01 48.24 159.77 48.49Q159.47 48.78 158.98 48.75Q158.50 48.73 158.06 49.22Q158.06 49.32 158.11 49.34Q158.15 49.37 158.20 49.46Q157.86 49.61 157.50 49.58Q157.13 49.56 156.84 49.66Q156.45 49.76 156.08 50.12Q155.71 50.49 155.37 50.49Q155.22 50.49 154.86 50.39Q154.49 50.29 154.08 50.20Q153.66 50.10 153.27 49.98Q152.88 49.85 152.73 49.80L152.25 49.61Q151.66 49.37 151.37 49.10Q151.07 48.83 150.34 48.54Q150.15 48.44 149.93 48.36Q149.71 48.29 149.56 48.54Q149.27 48.29 148.93 48.02Q148.58 47.75 148.24 47.51Q147.85 47.27 147.53 46.97Q147.22 46.68 146.83 46.44Q146.58 46.29 146.36 46.22Q146.14 46.14 145.97 46.09Q145.80 46.04 145.61 45.95Q145.41 45.85 145.17 45.56L145.07 45.85Q144.97 45.95 144.73 46.00Q144.48 46.04 144.38 46.29Q144.29 46.58 144.53 47.09Q144.78 47.61 144.68 47.95Q144.58 48.29 144.68 48.80Q144.78 49.32 144.53 49.56L144.53 49.66Q144.38 49.90 144.19 50.12Q143.99 50.34 143.95 50.68Q143.90 51.03 144.07 51.37Q144.24 51.71 144.19 52.10Q144.19 52.44 144.17 52.76Q144.14 53.08 144.14 53.47Q144.14 53.96 143.82 54.49Q143.51 55.03 143.60 55.37Q143.80 55.81 144.14 56.15Q144.48 56.49 144.48 56.98Q144.48 57.57 144.48 57.89Q144.48 58.20 144.53 58.45Q144.58 58.69 144.68 59.01Q144.78 59.33 145.02 59.81Q145.21 60.21 145.58 60.33Q145.95 60.45 146.19 60.79Q146.29 60.89 146.31 61.11Q146.34 61.33 146.34 61.43Q146.44 62.30 146.83 62.60Q147.22 62.89 147.90 63.33L147.95 63.33Q148.39 63.33 148.78 63.18Q149.17 63.04 149.56 63.09Q150 63.13 150.24 63.48Q150.49 63.82 151.03 63.92Q151.86 64.01 152.59 63.96Q153.32 63.92 154.15 63.82Q154.54 63.72 154.93 63.77Q155.32 63.82 155.71 63.72Q156.15 63.67 156.52 63.62Q156.88 63.57 157.28 63.48Q158.11 63.33 158.86 63.21Q159.62 63.09 160.45 62.84Q160.84 62.74 161.11 62.30Q161.38 61.87 161.67 61.77Q162.01 61.62 162.48 61.74Q162.94 61.87 163.33 61.72Q163.72 61.52 164.06 61.38Q164.40 61.23 164.79 60.99Q165.09 60.79 165.53 60.74Q165.97 60.69 166.36 60.50Q166.75 60.25 166.92 59.84Q167.09 59.42 167.38 59.18Q167.63 59.03 168.04 58.74Q168.46 58.45 168.90 58.25Q169.34 58.06 169.75 58.03Q170.17 58.01 170.41 58.35Q170.26 58.59 170.34 58.89Q170.41 59.18 170.51 59.47Q170.61 59.77 170.68 59.99Q170.75 60.21 170.65 60.35M162.30 29.20Q162.30 29.10 162.04 28.98Q161.77 28.86 161.67 28.86Q161.77 28.71 162.04 28.37Q162.30 28.03 162.06 27.83Q162.01 27.29 161.74 26.81Q161.47 26.32 161.18 25.88Q160.89 25.44 160.64 25.07Q160.40 24.71 160.35 24.37Q160.45 24.27 160.57 24.12Q160.69 23.97 160.69 23.78Q160.69 23.49 160.40 22.80Q160.11 22.12 159.72 22.02Q159.42 21.92 158.89 22.12Q158.35 22.31 157.79 22.61Q157.23 22.90 156.71 23.24Q156.20 23.58 155.96 23.78Q155.66 24.02 155.30 24.10Q154.93 24.17 154.69 24.46Q154.49 25.15 154.37 25.68Q154.25 26.22 153.86 26.90Q153.71 27.15 153.64 27.34Q153.56 27.54 153.37 27.78Q153.13 28.17 152.83 28.42Q152.54 28.66 152.29 29.05Q152.05 29.44 151.95 29.83Q151.86 30.22 151.61 30.66Q151.56 30.76 151.44 31.05Q151.32 31.35 151.22 31.67Q151.12 31.98 151.12 32.25Q151.12 32.52 151.32 32.62L151.46 32.76Q151.22 33.01 150.95 33.18Q150.68 33.35 150.44 33.64Q150.20 33.94 149.93 34.23Q149.66 34.52 149.51 34.91Q149.37 35.30 149.19 35.60Q149.02 35.89 148.88 36.28Q148.73 36.67 148.78 37.13Q148.83 37.60 148.73 37.84Q148.58 38.18 148.46 38.50Q148.34 38.82 148.19 39.21Q148.05 39.55 147.90 39.87Q147.75 40.19 147.51 40.53Q147.36 40.92 146.95 41.38Q146.53 41.85 146.44 42.09Q146.58 42.29 146.83 42.33Q147.07 42.38 147.34 42.41Q147.61 42.43 147.85 42.46Q148.10 42.48 148.24 42.63Q148.49 42.87 148.68 43.16Q148.88 43.46 149.12 43.70Q149.41 43.95 149.56 44.36Q149.71 44.78 150.34 45.31Q150.59 45.51 150.73 45.70Q150.88 45.90 151.12 46.04Q151.46 46.29 151.88 46.31Q152.29 46.34 152.69 46.48Q153.08 46.63 153.44 46.92Q153.81 47.22 154.25 47.17Q154.64 47.12 154.88 46.78Q155.13 46.44 155.47 46.29Q155.57 46.19 155.74 46.19Q155.91 46.19 156.05 46.14Q156.35 46.09 156.47 46.04Q156.59 46.00 156.71 45.92Q156.84 45.85 156.96 45.75Q157.08 45.65 157.32 45.46Q157.57 45.26 157.74 45.12Q157.91 44.97 158.11 44.73Q158.35 44.43 158.47 44.09Q158.59 43.75 158.79 43.46Q159.03 43.12 159.06 42.70Q159.08 42.29 159.33 41.94Q159.57 41.60 159.99 41.36Q160.40 41.11 160.69 40.77Q160.30 39.99 160.40 39.62Q160.50 39.26 160.89 38.53Q161.08 38.13 161.08 37.74Q161.08 37.35 161.33 36.96Q161.62 36.43 161.72 35.99Q161.82 35.55 161.82 34.96Q162.11 34.96 162.35 34.84Q162.60 34.72 162.06 34.52Q162.45 33.74 162.45 33.37Q162.45 33.01 162.26 32.18Q162.16 31.88 162.06 31.59Q161.96 31.30 161.87 31.01Q161.87 30.81 161.99 30.64Q162.11 30.47 162.21 30.30Q162.30 30.13 162.28 29.91Q162.26 29.69 161.91 29.39Q162.01 29.39 162.13 29.37Q162.26 29.35 162.26 29.25L162.30 29.20ZM202.05 49.46Q202.25 50.20 201.90 50.71Q201.56 51.22 201.00 51.61Q200.44 52.00 199.78 52.32Q199.12 52.64 198.68 53.03Q196.48 53.52 194.70 53.74Q192.92 53.96 190.77 54.30Q190.14 54.39 189.58 54.27Q189.01 54.15 188.43 54.20Q188.09 54.20 187.79 54.17Q187.50 54.15 187.21 54.20Q186.08 54.30 185.74 54.96Q185.40 55.62 185.18 56.47Q184.96 57.32 184.64 58.08Q184.33 58.84 183.30 59.13Q183.20 59.38 183.37 59.57Q183.54 59.77 183.64 59.91Q182.81 60.16 182.54 60.79Q182.28 61.43 182.08 62.06Q181.88 62.70 181.52 63.13Q181.15 63.57 180.13 63.43Q178.61 65.04 176.56 66.04Q174.51 67.04 172.31 67.33Q171.92 67.14 171.56 66.85Q171.19 66.55 170.83 66.31Q170.46 66.06 170.04 65.94Q169.63 65.82 169.09 65.92Q169.04 64.89 168.68 64.01Q168.31 63.13 167.72 62.35Q167.63 61.47 167.94 60.72Q168.26 59.96 168.60 59.23Q168.95 58.50 169.17 57.74Q169.38 56.98 169.09 56.01Q169.58 55.71 169.75 55.32Q169.92 54.93 170.00 54.52Q170.07 54.10 170.21 53.74Q170.36 53.37 170.90 53.13Q170.51 51.95 171.02 51.39Q171.53 50.83 172.27 50.39Q173.00 49.95 173.63 49.41Q174.27 48.88 174.12 47.80Q174.41 47.51 174.80 47.31Q175.20 47.12 175.56 46.95Q175.93 46.78 176.27 46.58Q176.61 46.39 176.90 46.04Q176.56 45.80 176.59 45.56Q176.61 45.31 176.71 45.04Q176.81 44.78 176.93 44.48Q177.05 44.19 176.90 43.90Q178.22 44.09 179.22 43.53Q180.22 42.97 181.13 42.38Q182.03 41.80 182.96 41.55Q183.89 41.31 185.11 42.14Q185.21 42.48 185.42 43.14Q185.64 43.80 185.86 44.48Q186.08 45.17 186.28 45.80Q186.47 46.44 186.52 46.73Q186.52 46.97 186.52 47.51Q186.52 48.05 186.52 48.66Q186.52 49.27 186.52 49.80Q186.52 50.34 186.52 50.63Q187.94 51.46 189.36 51.64Q190.77 51.81 192.19 50.98Q192.72 51.46 193.21 51.25Q193.70 51.03 194.17 50.73Q194.63 50.44 195.12 50.42Q195.61 50.39 196.09 51.22Q196.78 50.59 197.51 50.42Q198.24 50.24 199.02 50.22Q199.80 50.20 200.56 50.10Q201.32 50 202.05 49.46M183.30 50.29Q183.30 49.56 183.54 48.73Q183.79 47.90 183.94 47.09Q184.08 46.29 183.91 45.56Q183.74 44.82 182.96 44.24Q182.42 44.53 182.08 45.04Q181.74 45.56 181.40 46.07Q181.05 46.58 180.59 46.92Q180.13 47.27 179.39 47.12Q179.15 47.71 179.39 48.07Q179.64 48.44 179.98 48.75Q180.32 49.07 180.64 49.41Q180.96 49.76 180.86 50.29Q181.05 50.44 181.40 50.56Q181.74 50.68 182.10 50.71Q182.47 50.73 182.81 50.63Q183.15 50.54 183.30 50.29M182.96 54.20Q181.98 54.20 181.27 53.74Q180.57 53.27 179.86 52.69Q179.15 52.10 178.39 51.59Q177.64 51.07 176.56 50.98Q176.12 51.56 175.54 52.08Q174.95 52.59 174.51 53.17Q174.07 53.76 173.90 54.44Q173.73 55.13 174.12 56.01Q173.00 56.54 172.61 57.54Q172.22 58.54 172.09 59.72Q171.97 60.89 171.88 62.06Q171.78 63.23 171.24 64.16L172.31 63.43Q172.51 63.53 172.63 63.72Q172.75 63.92 172.66 64.16Q173.05 63.77 173.54 63.55Q174.02 63.33 174.54 63.21Q175.05 63.09 175.56 62.99Q176.07 62.89 176.56 62.70Q177.78 63.38 178.32 62.99Q178.86 62.60 179.20 61.82Q179.54 61.04 179.93 60.18Q180.32 59.33 181.20 59.13L180.86 58.79Q181.69 57.76 182.35 56.67Q183.01 55.57 182.96 54.20ZM230.71 51.61Q230.27 53.96 229.17 55.40Q228.08 56.84 226.22 58.30Q226.56 58.45 226.64 58.62Q226.71 58.79 226.71 59.08L226.61 59.33Q226.17 58.98 225.78 58.96Q225.39 58.94 225.05 59.11Q224.71 59.28 224.37 59.55Q224.02 59.81 223.68 60.11Q222.61 60.11 221.44 60.42Q220.26 60.74 219.17 60.89Q218.07 61.04 217.14 60.72Q216.21 60.40 215.63 59.13Q215.23 58.98 214.82 58.86Q214.40 58.74 214.01 58.64Q213.18 60.21 211.99 61.65Q210.79 63.09 209.33 64.33Q207.86 65.58 206.23 66.55Q204.59 67.53 202.98 68.07L202.83 68.12Q202.64 67.82 202.49 67.72Q202.34 67.63 202.17 67.68Q202.00 67.72 201.78 67.80Q201.56 67.87 201.22 67.87L200.88 68.46Q200.20 67.97 200.05 67.36Q199.90 66.75 199.32 66.50L198.88 67.04L198.73 66.89Q197.85 66.02 197.22 64.60Q196.58 63.18 196.19 61.60Q195.80 60.01 195.68 58.45Q195.56 56.88 195.70 55.71Q195.31 55.32 194.78 55.03Q194.24 54.74 194.14 54.15L194.19 54.10Q194.29 53.52 194.75 53.32Q195.21 53.13 195.75 53.08Q196.29 53.03 196.78 53.03Q197.27 53.03 197.41 52.83Q197.41 52.54 197.19 52.25Q196.97 51.95 196.78 51.71Q196.78 51.22 197.02 50.98Q197.27 50.73 197.56 50.54Q197.85 50.34 198.10 50.20Q198.34 50.05 198.34 49.80Q198.34 49.61 198.24 49.46Q198.14 49.32 198.05 49.07Q198.78 48.97 198.93 48.58Q199.07 48.19 199.56 47.75Q199.27 47.36 199.46 46.90Q199.66 46.44 199.90 45.97Q200.15 45.51 200.27 45.09Q200.39 44.68 200 44.34Q199.95 44.34 199.95 44.31Q199.95 44.29 199.90 44.29Q200.93 41.26 201.93 38.21Q202.93 35.16 204.08 32.18Q205.22 29.20 206.57 26.32Q207.91 23.44 209.62 20.70Q209.67 20.07 209.99 19.73Q210.30 19.38 210.74 19.21Q211.18 19.04 211.72 18.90Q212.26 18.75 212.70 18.48Q213.13 18.21 213.43 17.77Q213.72 17.33 213.72 16.50Q214.50 16.70 215.19 16.70Q215.87 16.70 216.53 16.75Q217.19 16.80 217.80 17.04Q218.41 17.29 218.99 18.02L219.04 18.07Q219.09 18.26 219.02 18.63Q218.95 18.99 218.95 19.24Q218.95 20.21 219.12 21.24Q219.29 22.27 219.24 23.27Q219.19 24.27 218.80 25.12Q218.41 25.98 217.33 26.61Q217.82 27.88 217.36 28.88Q216.89 29.88 216.11 30.81Q215.33 31.74 214.62 32.71Q213.92 33.69 213.92 34.91Q213.13 35.30 212.70 36.01Q212.26 36.72 211.84 37.50Q211.43 38.28 210.91 38.94Q210.40 39.60 209.42 39.89Q208.98 41.65 207.81 43.02Q206.64 44.38 205.42 45.70Q204.20 47.02 203.25 48.44Q202.29 49.85 202.29 51.71Q200.93 53.03 200.51 54.74Q200.10 56.45 200.10 58.25Q200.10 58.79 200.15 59.33Q200.20 59.86 200.20 60.40Q199.80 60.16 199.51 60.60L199.46 60.69Q199.85 61.72 200.37 62.67Q200.88 63.62 201.66 64.45Q202.93 64.06 204.17 63.60Q205.42 63.13 206.74 62.79Q207.03 61.62 207.84 61.16Q208.64 60.69 209.45 60.35Q210.25 60.01 210.89 59.52Q211.52 59.03 211.52 57.76L211.62 57.76Q212.35 57.62 212.74 57.10Q213.13 56.59 213.35 55.93Q213.57 55.27 213.65 54.54Q213.72 53.81 213.77 53.22Q213.62 52.98 213.70 52.51Q213.77 52.05 213.84 51.54Q213.92 51.03 213.89 50.49Q213.87 49.95 213.62 49.51L213.62 49.41L213.67 49.32Q213.92 48.83 214.16 48.41Q214.40 48.00 214.60 47.51Q215.09 46.19 215.72 45.46Q216.36 44.73 217.92 44.73Q218.90 45.31 219.07 46.00Q219.24 46.68 219.04 47.46Q218.85 48.24 218.60 49.10Q218.36 49.95 218.51 50.78L218.60 50.93Q218.31 50.98 218.07 51.22Q217.82 51.46 217.58 51.76Q217.33 52.05 217.11 52.34Q216.89 52.64 216.75 52.83Q217.09 53.37 217.14 53.93Q217.19 54.49 217.26 54.96Q217.33 55.42 217.65 55.79Q217.97 56.15 218.80 56.20Q219.68 56.30 220.61 56.45Q221.53 56.59 222.44 56.62Q223.34 56.64 224.19 56.45Q225.05 56.25 225.78 55.62Q225.78 54.98 226.05 54.79Q226.32 54.59 226.68 54.54Q227.05 54.49 227.44 54.47Q227.83 54.44 228.08 54.10Q227.78 54.00 227.71 53.88Q227.64 53.76 227.29 54.05L227.15 53.37L227.44 53.17Q227.78 53.47 228.13 53.34Q228.47 53.22 228.78 52.95Q229.10 52.69 229.42 52.37Q229.74 52.05 230.03 51.90L230.32 51.46L230.71 51.61M215.97 20.56Q215.82 20.61 215.63 20.70Q214.94 21.04 214.16 21.48Q213.38 21.92 212.72 22.49Q212.06 23.05 211.62 23.75Q211.18 24.46 211.18 25.34Q211.18 25.49 211.18 25.81Q211.18 26.12 211.28 26.22Q211.08 26.32 210.91 26.64Q210.74 26.95 210.52 27.32Q210.30 27.69 209.99 28.00Q209.67 28.32 209.18 28.42Q209.62 29.05 209.62 29.71Q209.62 30.37 209.38 31.01Q209.13 31.64 208.72 32.25Q208.30 32.86 207.91 33.40L207.71 33.25Q207.96 34.23 207.79 35.08Q207.62 35.94 207.30 36.74Q206.98 37.55 206.59 38.33Q206.20 39.11 205.96 39.99Q206.35 39.55 206.67 39.06Q206.98 38.57 207.32 38.09Q207.42 38.18 207.69 38.35Q207.96 38.53 208.06 38.53Q207.91 38.28 207.76 37.99Q207.62 37.70 207.47 37.45L207.47 37.35Q208.11 36.28 209.03 35.47Q209.96 34.67 210.79 33.84Q210.79 32.47 211.35 31.62Q211.91 30.76 212.62 30.05Q213.33 29.35 213.89 28.64Q214.45 27.93 214.45 26.86Q214.45 26.61 214.40 26.20Q214.36 25.78 214.26 25.54L214.40 25.49Q215.33 25.20 215.63 24.63Q215.92 24.07 215.94 23.41Q215.97 22.75 215.89 22.00Q215.82 21.24 215.97 20.56ZM262.89 49.85Q262.45 50.29 262.23 50.54Q262.01 50.78 261.84 51.00Q261.67 51.22 261.45 51.46Q261.23 51.71 260.79 52.20Q260.40 52.59 260.06 53.03Q259.72 53.47 259.28 53.81Q258.69 53.66 258.37 53.96Q258.06 54.25 257.79 54.61Q257.52 54.98 257.30 55.30Q257.08 55.62 256.74 55.57Q255.57 56.20 254.39 56.67Q253.22 57.13 252.15 58.01L251.76 57.62L246.68 60.06Q246.44 60.16 246.19 60.35Q245.95 60.55 245.70 60.69Q244.63 61.28 243.48 61.74Q242.33 62.21 241.21 62.60L240.58 62.79Q240.97 63.77 240.58 64.16Q240.19 64.55 239.45 64.72Q238.72 64.89 237.84 64.94Q236.96 64.99 236.47 65.28Q235.89 65.19 235.28 65.21Q234.67 65.23 234.03 65.33Q233.35 65.43 232.76 65.43Q232.18 65.43 231.49 65.28L231.40 65.28Q230.57 65.67 229.96 65.45Q229.35 65.23 228.86 64.72Q228.37 64.21 227.95 63.50Q227.54 62.79 227.10 62.21Q226.81 61.82 226.37 61.08Q225.93 60.35 225.61 59.52Q225.29 58.69 225.22 57.84Q225.15 56.98 225.59 56.35Q226.03 55.71 226.29 54.98Q226.56 54.25 226.56 53.27Q226.56 52.93 226.54 52.64Q226.51 52.34 226.51 52.00Q226.76 52.00 227.05 52.03Q227.34 52.05 227.61 52.03Q227.88 52.00 228.05 51.83Q228.22 51.66 228.22 51.22Q228.22 50.98 228.05 50.83Q227.88 50.68 227.83 50.54Q228.13 50.10 228.39 49.83Q228.66 49.56 228.86 49.29Q229.05 49.02 229.15 48.66Q229.25 48.29 229.10 47.66Q229.69 46.63 230.49 45.83Q231.30 45.02 232.18 44.31Q233.06 43.60 233.98 42.92Q234.91 42.24 235.74 41.46Q236.67 41.85 237.23 41.46Q237.79 41.06 238.23 40.60Q238.67 40.14 239.11 39.84Q239.55 39.55 240.28 40.09L240.38 40.19Q241.70 38.87 243.04 39.01Q244.38 39.16 245.34 39.89Q246.29 40.63 246.58 41.58Q246.88 42.53 246.04 42.87Q246.58 43.41 246.58 44.14Q246.58 44.87 246.19 45.41Q245.75 46.00 245.43 46.61Q245.12 47.22 244.78 47.90Q244.29 49.02 243.70 50.02Q243.12 51.03 242.04 51.71Q241.16 51.46 240.84 51.90Q240.53 52.34 240.38 52.86Q240.23 53.37 240.04 53.66Q239.84 53.96 239.21 53.47L239.11 53.37L239.01 53.47Q238.62 53.86 238.40 54.35Q238.18 54.83 237.79 55.08Q237.35 54.93 236.87 54.83Q236.38 54.74 235.94 54.64Q235.94 55.66 235.55 56.25Q235.16 56.84 234.55 57.20Q233.94 57.57 233.15 57.79Q232.37 58.01 231.62 58.33Q230.86 58.64 230.20 59.11Q229.54 59.57 229.15 60.40Q229.64 60.94 230.37 61.01Q231.10 61.08 231.88 61.01Q232.67 60.94 233.42 60.94Q234.18 60.94 234.77 61.33L234.81 61.38L234.86 61.33Q236.04 61.18 237.13 60.77Q238.23 60.35 239.28 59.89Q240.33 59.42 241.43 59.01Q242.53 58.59 243.70 58.40Q243.95 58.79 244.36 58.84Q244.78 58.89 245.17 58.79L245.21 58.69Q245.31 58.35 245.41 58.08Q245.51 57.81 245.70 57.47Q246.04 56.93 246.53 56.64Q247.02 56.35 247.58 56.20Q248.14 56.05 248.78 56.01Q249.41 55.96 250.05 55.86L250.15 55.86L250.20 55.71Q250.39 55.13 250.71 54.91Q251.03 54.69 251.39 54.59Q251.76 54.49 252.17 54.44Q252.59 54.39 252.98 54.15Q253.86 54.44 254.44 53.96Q255.03 53.47 255.57 52.93L255.96 53.42L256.10 53.22Q256.84 52.54 257.20 52.20Q257.57 51.86 257.91 51.59Q258.25 51.32 258.72 51.05Q259.18 50.78 260.01 50.24Q260.69 49.80 261.35 49.37Q262.01 48.93 262.65 48.39Q262.89 48.49 262.89 48.75Q262.89 49.02 262.89 49.27Q262.84 49.37 262.82 49.56Q262.79 49.76 262.89 49.85M242.68 43.75Q242.63 43.70 242.60 43.70Q242.58 43.70 242.53 43.65Q241.50 43.12 240.82 43.14Q240.14 43.16 239.58 43.53Q239.01 43.90 238.55 44.46Q238.09 45.02 237.57 45.48Q237.06 45.95 236.38 46.19Q235.69 46.44 234.72 46.14Q234.57 46.92 234.45 47.68Q234.33 48.44 234.28 49.22Q233.45 49.51 232.98 50.05Q232.52 50.59 232.20 51.22Q231.88 51.86 231.62 52.56Q231.35 53.27 230.91 53.91L231.10 54.15Q231.30 54.05 231.54 54.30Q231.79 54.54 231.88 54.64Q232.42 53.86 233.33 53.32Q234.23 52.78 235.18 52.32Q236.13 51.86 237.01 51.32Q237.89 50.78 238.33 49.90Q239.89 49.46 240.67 48.14Q241.46 46.83 241.99 45.41Q242.09 45.12 242.36 44.56Q242.63 43.99 242.68 43.75ZM284.47 63.72Q284.77 63.92 284.72 64.06Q284.67 64.21 284.50 64.36Q284.33 64.50 284.08 64.58Q283.84 64.65 283.69 64.70L282.23 64.99Q280.37 65.38 278.71 66.09Q277.05 66.80 275.34 67.48Q275.15 67.24 274.83 67.14Q274.51 67.04 274.27 67.33Q274.32 67.48 274.32 67.77Q274.32 68.36 274.27 68.73Q274.22 69.09 274.10 69.38Q273.97 69.68 273.73 69.95Q273.49 70.21 273.10 70.61Q272.61 71.09 273.24 71.09Q272.90 71.53 272.51 71.58Q272.41 71.63 272.22 71.63Q272.12 71.63 272.02 71.68Q271.97 71.78 272.12 72.09Q272.27 72.41 272.31 72.51Q272.31 72.56 272.17 72.75Q272.02 72.95 271.88 73.17Q271.73 73.39 271.63 73.61Q271.53 73.83 271.63 73.97L271.63 74.37Q271.88 74.46 271.66 74.54Q271.44 74.61 271.39 74.61Q271.34 74.61 271.09 74.83Q270.85 75.05 270.85 75.10Q270.75 75.20 270.63 75.22Q270.51 75.24 270.36 75.34Q270.31 75.34 270.24 75.51Q270.17 75.68 270.12 75.88Q270.07 76.07 270.02 76.27Q269.97 76.46 270.02 76.51Q270.02 77.15 269.90 77.59Q269.78 78.03 269.63 78.66Q269.43 79.44 269.07 79.76Q268.70 80.08 268.31 80.35Q267.92 80.62 267.55 80.96Q267.19 81.30 266.99 82.08Q266.94 82.28 266.89 82.42Q266.85 82.52 266.85 82.67L266.85 82.76Q266.65 83.11 266.53 83.33Q266.41 83.54 266.31 83.74Q266.21 83.94 266.16 84.18Q266.11 84.42 266.11 84.77Q266.21 84.91 266.14 85.21Q266.06 85.50 265.92 85.79Q265.77 86.08 265.60 86.38Q265.43 86.67 265.33 86.82Q265.19 87.06 264.99 87.30Q264.79 87.55 264.60 87.79Q263.57 89.21 262.89 90.58Q261.87 92.63 260.40 94.48Q260.11 94.82 259.74 95.21Q259.38 95.61 259.18 96.00L259.18 96.34Q259.18 97.31 258.64 97.80Q258.11 98.29 257.32 98.73Q257.08 98.93 256.79 99.12Q256.49 99.32 256.30 99.61Q256.01 100 255.49 100.59Q254.98 101.17 254.54 101.42Q254.44 101.42 253.91 101.37Q253.37 101.32 253.27 101.32Q253.17 101.37 252.95 101.51Q252.73 101.66 252.49 101.81Q252.25 101.95 252.00 102.05Q251.76 102.15 251.71 102.10Q251.42 101.95 251.22 101.95Q251.12 101.95 251.00 102.08Q250.88 102.20 250.78 102.29Q250.39 102.20 250.20 102.20Q250.10 102.20 249.88 102.00Q249.66 101.81 249.44 101.54Q249.22 101.27 249.05 101.03Q248.88 100.78 248.83 100.68Q248.49 100.15 248.44 99.41Q248.39 98.68 248.46 97.88Q248.54 97.07 248.68 96.29Q248.83 95.51 248.97 94.92Q249.22 93.95 249.41 92.94Q249.61 91.94 249.61 90.97Q249.61 90.72 249.71 90.58Q249.80 90.43 249.90 90.28Q250 90.19 249.95 90.06Q249.90 89.94 249.85 89.84Q249.80 89.70 249.95 89.26Q250.10 88.82 250.32 88.31Q250.54 87.79 250.76 87.33Q250.98 86.87 251.07 86.72Q252.05 84.96 252.86 83.01Q253.66 81.05 254.93 79.49Q255.66 78.61 256.40 77.73Q257.13 76.86 257.81 75.88Q258.11 75.49 258.30 75.29Q258.59 74.90 259.18 74.66Q259.77 74.41 260.30 74.51Q260.35 74.51 260.77 74.22Q261.18 73.93 261.23 73.88Q261.43 73.24 261.87 72.53Q262.30 71.83 262.74 71.29Q263.04 70.95 263.53 70.80Q264.01 70.65 264.58 70.51Q265.14 70.36 265.67 70.14Q266.21 69.92 266.65 69.38Q266.99 68.99 267.55 68.46Q268.12 67.92 268.65 67.72Q269.14 67.82 270.00 67.58Q270.85 67.33 271.14 66.89Q271.39 66.55 271.39 65.77Q271.39 65.38 271.70 64.79Q272.02 64.21 272.22 63.92Q272.46 63.53 272.61 63.13Q272.75 62.74 272.90 62.35Q273.00 62.11 273.05 61.89Q273.10 61.67 273.14 61.43Q273.19 61.38 273.34 61.08Q273.49 60.79 273.66 60.50Q273.83 60.21 273.95 59.94Q274.07 59.67 274.02 59.62Q274.02 59.57 273.73 59.52Q273.44 59.47 273.12 59.45Q272.80 59.42 272.51 59.40Q272.22 59.38 272.17 59.38Q271.97 59.38 271.61 59.52Q271.24 59.67 270.83 59.86Q270.41 60.06 270.12 60.28Q269.82 60.50 269.78 60.60Q268.21 61.13 266.65 61.18Q265.09 61.23 263.53 61.82Q262.60 62.16 261.50 62.33Q260.40 62.50 259.38 62.45Q259.33 62.45 259.08 62.38Q258.84 62.30 258.54 62.18Q258.25 62.06 258.01 61.96Q257.76 61.87 257.71 61.87Q257.47 61.77 257.25 61.50Q257.03 61.23 256.86 60.91Q256.69 60.60 256.54 60.28Q256.40 59.96 256.30 59.77Q256.05 59.23 255.88 58.69Q255.71 58.15 255.62 57.62Q255.57 57.62 255.57 57.23Q255.57 57.03 255.52 56.88Q255.32 55.57 255.25 53.96Q255.18 52.34 255.91 51.17Q256.10 50.83 256.35 50.42Q256.59 50 256.84 49.71Q257.03 49.46 257.18 49.32Q257.32 49.17 257.52 48.93Q257.57 48.83 257.71 48.71Q257.86 48.58 257.86 48.54Q258.40 48.00 258.84 47.41Q259.28 46.83 259.67 46.24Q259.77 46.09 259.96 45.87Q260.16 45.65 260.38 45.43Q260.60 45.21 260.84 45.09Q261.08 44.97 261.28 45.07Q261.52 45.07 261.74 45.07Q261.96 45.07 262.21 45.12Q262.45 45.51 262.57 45.75Q262.70 46.00 262.72 46.26Q262.74 46.53 262.72 46.85Q262.70 47.17 262.70 47.61Q262.45 47.80 262.16 48.00Q261.87 48.19 261.57 48.39Q261.47 48.49 261.25 49.02Q261.04 49.56 260.82 50.22Q260.60 50.88 260.42 51.49Q260.25 52.10 260.21 52.25Q259.91 53.52 259.20 54.79Q258.50 56.05 257.62 56.98L257.57 57.13Q257.91 57.47 258.18 57.79Q258.45 58.11 258.74 58.40Q259.33 58.40 259.86 58.25Q260.11 58.45 260.38 58.64Q260.64 58.84 260.84 59.08Q261.47 59.08 261.99 59.08Q262.50 59.08 262.96 59.03Q263.43 58.98 263.92 58.84Q264.40 58.69 264.94 58.35Q265.14 58.25 265.53 57.98Q265.92 57.71 266.16 57.71L267.92 57.42Q268.36 57.23 268.77 56.96Q269.19 56.69 269.58 56.45Q269.82 56.30 270.14 56.18Q270.46 56.05 270.70 55.96Q272.22 55.27 273.32 54.15Q274.41 53.03 275.59 51.90Q276.51 51.03 277.37 49.88Q278.22 48.73 278.76 47.61Q279.10 46.78 279.54 45.92Q279.98 45.07 280.52 44.38Q280.91 43.95 281.64 43.65Q282.37 43.36 282.96 43.26Q283.35 43.16 283.69 43.53Q284.03 43.90 284.03 44.24Q284.08 45.17 283.98 45.80Q283.89 46.44 283.64 46.95Q283.40 47.46 283.01 47.97Q282.62 48.49 282.03 49.22L280.91 50.68Q280.86 50.78 280.93 50.83Q281.01 50.88 281.05 50.98Q281.10 51.07 281.05 51.29Q281.01 51.51 280.91 51.81Q280.81 52.10 280.71 52.34Q280.62 52.59 280.57 52.64Q280.52 52.64 280.47 52.76Q280.42 52.88 280.32 52.98L280.13 53.27Q279.49 54.20 279.08 55.10Q278.66 56.01 278.76 57.13Q278.76 57.57 278.54 57.91Q278.32 58.25 278.03 58.62Q277.73 58.98 277.44 59.47Q277.15 59.96 277.05 60.79Q277.00 60.99 277.00 61.13Q277.00 61.23 276.98 61.28Q276.95 61.33 276.95 61.38L276.95 61.47Q276.71 62.45 276.42 63.16Q276.12 63.87 275.73 64.84Q275.78 64.84 276.05 64.60Q276.32 64.36 276.68 64.11Q277.05 63.87 277.47 63.67Q277.88 63.48 278.27 63.62Q278.56 63.72 278.96 63.70Q279.35 63.67 279.71 63.57Q280.08 63.48 280.32 63.40Q280.57 63.33 280.62 63.33Q281.05 63.33 281.45 63.33Q281.84 63.33 282.23 63.38Q282.28 63.43 282.54 63.43Q282.81 63.43 283.18 63.48Q283.54 63.53 283.91 63.57Q284.28 63.62 284.47 63.72M269.73 70.36Q269.58 70.51 269.19 70.92Q268.80 71.34 268.33 71.75Q267.87 72.17 267.43 72.44Q266.99 72.71 266.80 72.61L266.41 72.80Q265.92 73.05 265.77 73.49Q265.63 73.93 265.50 74.41Q265.38 74.90 265.21 75.34Q265.04 75.78 264.50 76.03Q263.87 75.73 263.60 75.59Q263.33 75.44 263.13 75.49Q262.94 75.54 262.70 75.85Q262.45 76.17 261.87 76.81Q260.50 78.37 259.11 79.91Q257.71 81.45 256.30 83.01Q255.96 83.98 255.44 85.01Q254.93 86.04 254.39 87.01Q253.81 88.04 253.37 89.36Q252.93 90.67 252.61 92.07Q252.29 93.46 252.08 94.87Q251.86 96.29 251.71 97.51Q251.76 97.61 252.05 97.58Q252.34 97.56 252.66 97.49Q252.98 97.41 253.27 97.34Q253.56 97.27 253.66 97.22Q253.71 97.22 253.91 97.02Q254.10 96.83 254.32 96.58Q254.54 96.34 254.71 96.12Q254.88 95.90 254.88 95.85Q255.08 95.75 255.57 95.56Q256.05 95.36 256.25 95.36Q256.35 95.36 256.37 94.97Q256.40 94.58 256.40 94.48L256.40 93.65Q256.30 93.55 256.32 93.12Q256.35 92.68 256.35 92.58Q256.88 92.33 257.40 92.09Q257.91 91.85 258.45 91.55Q258.59 91.11 258.79 90.65Q258.98 90.19 259.23 89.75Q260.21 87.89 261.08 86.06Q261.96 84.23 263.09 82.37Q263.92 81.01 264.67 79.61Q265.43 78.22 266.26 76.81Q266.31 76.71 266.48 76.42Q266.65 76.12 266.87 75.83Q267.09 75.54 267.31 75.32Q267.53 75.10 267.68 75.10Q267.92 75.10 267.97 74.73Q268.02 74.37 268.02 74.22Q268.02 74.02 268.29 73.41Q268.55 72.80 268.87 72.14Q269.19 71.48 269.46 70.95Q269.73 70.41 269.73 70.36Z"/></g></g></svg>